<mxfile host="app.diagrams.net" agent="Mozilla/5.0 (Windows NT 10.0; Win64; x64; rv:133.0) Gecko/20100101 Firefox/133.0" version="25.0.1">
  <diagram name="Page-1" id="8MQqmBH3zJSPwj12BHaC">
    <mxGraphModel dx="464" dy="1368" grid="1" gridSize="10" guides="1" tooltips="1" connect="1" arrows="1" fold="1" page="1" pageScale="1" pageWidth="850" pageHeight="1100" math="0" shadow="0">
      <root>
        <mxCell id="0" />
        <mxCell id="1" parent="0" />
        <mxCell id="KQ7cRfpCfa-hkvte2fSc-3" value="t&lt;sub&gt;надх&lt;/sub&gt; = norm(6, 3)" style="text;html=1;align=center;verticalAlign=middle;whiteSpace=wrap;rounded=0;" parent="1" vertex="1">
          <mxGeometry x="4" y="160" width="110" height="20" as="geometry" />
        </mxCell>
        <mxCell id="KQ7cRfpCfa-hkvte2fSc-4" value="" style="endArrow=none;html=1;rounded=0;" parent="1" edge="1">
          <mxGeometry width="50" height="50" relative="1" as="geometry">
            <mxPoint x="217" y="70" as="sourcePoint" />
            <mxPoint x="257" y="70" as="targetPoint" />
          </mxGeometry>
        </mxCell>
        <mxCell id="KQ7cRfpCfa-hkvte2fSc-5" value="" style="endArrow=none;html=1;rounded=0;" parent="1" edge="1">
          <mxGeometry width="50" height="50" relative="1" as="geometry">
            <mxPoint x="217" y="110" as="sourcePoint" />
            <mxPoint x="257" y="110" as="targetPoint" />
          </mxGeometry>
        </mxCell>
        <mxCell id="KQ7cRfpCfa-hkvte2fSc-6" value="" style="endArrow=none;html=1;rounded=0;" parent="1" edge="1">
          <mxGeometry width="50" height="50" relative="1" as="geometry">
            <mxPoint x="257" y="70" as="sourcePoint" />
            <mxPoint x="257" y="110" as="targetPoint" />
          </mxGeometry>
        </mxCell>
        <mxCell id="KQ7cRfpCfa-hkvte2fSc-7" value="" style="endArrow=none;html=1;rounded=0;" parent="1" edge="1">
          <mxGeometry width="50" height="50" relative="1" as="geometry">
            <mxPoint x="251" y="75" as="sourcePoint" />
            <mxPoint x="251" y="105" as="targetPoint" />
          </mxGeometry>
        </mxCell>
        <mxCell id="KQ7cRfpCfa-hkvte2fSc-8" value="" style="endArrow=none;html=1;rounded=0;" parent="1" edge="1">
          <mxGeometry width="50" height="50" relative="1" as="geometry">
            <mxPoint x="246" y="75" as="sourcePoint" />
            <mxPoint x="246" y="105" as="targetPoint" />
          </mxGeometry>
        </mxCell>
        <mxCell id="KQ7cRfpCfa-hkvte2fSc-9" value="" style="endArrow=none;html=1;rounded=0;" parent="1" edge="1">
          <mxGeometry width="50" height="50" relative="1" as="geometry">
            <mxPoint x="241" y="75" as="sourcePoint" />
            <mxPoint x="241" y="105" as="targetPoint" />
          </mxGeometry>
        </mxCell>
        <mxCell id="KQ7cRfpCfa-hkvte2fSc-10" value="" style="endArrow=none;html=1;rounded=0;" parent="1" edge="1">
          <mxGeometry width="50" height="50" relative="1" as="geometry">
            <mxPoint x="236" y="75" as="sourcePoint" />
            <mxPoint x="236" y="105" as="targetPoint" />
          </mxGeometry>
        </mxCell>
        <mxCell id="KQ7cRfpCfa-hkvte2fSc-11" value="" style="endArrow=none;html=1;rounded=0;" parent="1" edge="1">
          <mxGeometry width="50" height="50" relative="1" as="geometry">
            <mxPoint x="231" y="75" as="sourcePoint" />
            <mxPoint x="231" y="105" as="targetPoint" />
          </mxGeometry>
        </mxCell>
        <mxCell id="KQ7cRfpCfa-hkvte2fSc-12" value="" style="endArrow=none;html=1;rounded=0;" parent="1" edge="1">
          <mxGeometry width="50" height="50" relative="1" as="geometry">
            <mxPoint x="226" y="75" as="sourcePoint" />
            <mxPoint x="226" y="105" as="targetPoint" />
          </mxGeometry>
        </mxCell>
        <mxCell id="KQ7cRfpCfa-hkvte2fSc-13" value="K&lt;sub&gt;11&lt;/sub&gt;" style="ellipse;whiteSpace=wrap;html=1;aspect=fixed;fillColor=none;" parent="1" vertex="1">
          <mxGeometry x="297" y="70" width="40" height="40" as="geometry" />
        </mxCell>
        <mxCell id="KQ7cRfpCfa-hkvte2fSc-14" value="t&lt;sub&gt;обр&lt;/sub&gt; = 5" style="text;html=1;align=center;verticalAlign=middle;whiteSpace=wrap;rounded=0;" parent="1" vertex="1">
          <mxGeometry x="289.5" y="40" width="55" height="20" as="geometry" />
        </mxCell>
        <mxCell id="KQ7cRfpCfa-hkvte2fSc-16" value="" style="endArrow=none;html=1;rounded=0;" parent="1" edge="1">
          <mxGeometry width="50" height="50" relative="1" as="geometry">
            <mxPoint x="257" y="89.75999999999999" as="sourcePoint" />
            <mxPoint x="297" y="89.75999999999999" as="targetPoint" />
          </mxGeometry>
        </mxCell>
        <mxCell id="KQ7cRfpCfa-hkvte2fSc-17" value="L&lt;sub&gt;11&lt;/sub&gt; = &lt;font style=&quot;font-size: 16px;&quot;&gt;∞&lt;/font&gt;" style="text;html=1;align=center;verticalAlign=middle;whiteSpace=wrap;rounded=0;" parent="1" vertex="1">
          <mxGeometry x="212" y="40" width="50" height="20" as="geometry" />
        </mxCell>
        <mxCell id="KQ7cRfpCfa-hkvte2fSc-19" value="" style="endArrow=none;html=1;rounded=0;" parent="1" edge="1">
          <mxGeometry width="50" height="50" relative="1" as="geometry">
            <mxPoint y="150" as="sourcePoint" />
            <mxPoint x="120" y="150" as="targetPoint" />
          </mxGeometry>
        </mxCell>
        <mxCell id="KQ7cRfpCfa-hkvte2fSc-20" value="" style="endArrow=none;html=1;rounded=0;" parent="1" edge="1">
          <mxGeometry width="50" height="50" relative="1" as="geometry">
            <mxPoint x="120" y="150" as="sourcePoint" />
            <mxPoint x="120" y="90" as="targetPoint" />
          </mxGeometry>
        </mxCell>
        <mxCell id="KQ7cRfpCfa-hkvte2fSc-21" value="" style="endArrow=classic;html=1;rounded=0;" parent="1" edge="1">
          <mxGeometry width="50" height="50" relative="1" as="geometry">
            <mxPoint x="120" y="90" as="sourcePoint" />
            <mxPoint x="220" y="90" as="targetPoint" />
          </mxGeometry>
        </mxCell>
        <mxCell id="KQ7cRfpCfa-hkvte2fSc-22" value="" style="triangle;whiteSpace=wrap;html=1;fillColor=#000000;" parent="1" vertex="1">
          <mxGeometry x="160" y="75" width="20" height="30" as="geometry" />
        </mxCell>
        <mxCell id="KQ7cRfpCfa-hkvte2fSc-25" value="" style="endArrow=open;html=1;rounded=0;dashed=1;endFill=0;" parent="1" edge="1">
          <mxGeometry width="50" height="50" relative="1" as="geometry">
            <mxPoint x="160" y="30" as="sourcePoint" />
            <mxPoint x="160" y="75" as="targetPoint" />
          </mxGeometry>
        </mxCell>
        <mxCell id="KQ7cRfpCfa-hkvte2fSc-26" value="" style="endArrow=none;html=1;rounded=0;dashed=1;" parent="1" edge="1">
          <mxGeometry width="50" height="50" relative="1" as="geometry">
            <mxPoint x="160" y="30" as="sourcePoint" />
            <mxPoint x="280" y="30" as="targetPoint" />
          </mxGeometry>
        </mxCell>
        <mxCell id="KQ7cRfpCfa-hkvte2fSc-27" value="B&lt;sub&gt;11&lt;/sub&gt; (S, t) = FAILURE_PROBABILITY(D&lt;sub&gt;1&lt;/sub&gt;) &amp;gt; 0.3" style="text;html=1;align=center;verticalAlign=middle;whiteSpace=wrap;rounded=0;" parent="1" vertex="1">
          <mxGeometry x="107" width="260" height="20" as="geometry" />
        </mxCell>
        <mxCell id="KQ7cRfpCfa-hkvte2fSc-28" value="" style="endArrow=none;html=1;rounded=0;" parent="1" edge="1">
          <mxGeometry width="50" height="50" relative="1" as="geometry">
            <mxPoint x="120" y="210" as="sourcePoint" />
            <mxPoint x="120" y="150" as="targetPoint" />
          </mxGeometry>
        </mxCell>
        <mxCell id="KQ7cRfpCfa-hkvte2fSc-29" value="" style="endArrow=classic;html=1;rounded=0;" parent="1" edge="1">
          <mxGeometry width="50" height="50" relative="1" as="geometry">
            <mxPoint x="120" y="210" as="sourcePoint" />
            <mxPoint x="220" y="210" as="targetPoint" />
          </mxGeometry>
        </mxCell>
        <mxCell id="KQ7cRfpCfa-hkvte2fSc-30" value="" style="triangle;whiteSpace=wrap;html=1;fillColor=#000000;" parent="1" vertex="1">
          <mxGeometry x="160" y="195" width="20" height="30" as="geometry" />
        </mxCell>
        <mxCell id="KQ7cRfpCfa-hkvte2fSc-32" value="" style="endArrow=none;html=1;rounded=0;dashed=1;startArrow=open;startFill=0;endFill=0;" parent="1" edge="1">
          <mxGeometry width="50" height="50" relative="1" as="geometry">
            <mxPoint x="160" y="225" as="sourcePoint" />
            <mxPoint x="160" y="270" as="targetPoint" />
          </mxGeometry>
        </mxCell>
        <mxCell id="KQ7cRfpCfa-hkvte2fSc-33" value="" style="endArrow=none;html=1;rounded=0;dashed=1;" parent="1" edge="1">
          <mxGeometry width="50" height="50" relative="1" as="geometry">
            <mxPoint x="160" y="270" as="sourcePoint" />
            <mxPoint x="280" y="270" as="targetPoint" />
          </mxGeometry>
        </mxCell>
        <mxCell id="KQ7cRfpCfa-hkvte2fSc-34" value="B&lt;sub&gt;21&lt;/sub&gt; (S, t) = FAILURE_PROBABILITY(D&lt;sub&gt;2&lt;/sub&gt;) &amp;lt;= 0.3" style="text;html=1;align=center;verticalAlign=middle;whiteSpace=wrap;rounded=0;" parent="1" vertex="1">
          <mxGeometry x="101" y="280" width="272" height="20" as="geometry" />
        </mxCell>
        <mxCell id="KQ7cRfpCfa-hkvte2fSc-35" value="" style="endArrow=none;html=1;rounded=0;" parent="1" edge="1">
          <mxGeometry width="50" height="50" relative="1" as="geometry">
            <mxPoint x="217" y="190" as="sourcePoint" />
            <mxPoint x="257" y="190" as="targetPoint" />
          </mxGeometry>
        </mxCell>
        <mxCell id="KQ7cRfpCfa-hkvte2fSc-36" value="" style="endArrow=none;html=1;rounded=0;" parent="1" edge="1">
          <mxGeometry width="50" height="50" relative="1" as="geometry">
            <mxPoint x="217" y="230" as="sourcePoint" />
            <mxPoint x="257" y="230" as="targetPoint" />
          </mxGeometry>
        </mxCell>
        <mxCell id="KQ7cRfpCfa-hkvte2fSc-37" value="" style="endArrow=none;html=1;rounded=0;" parent="1" edge="1">
          <mxGeometry width="50" height="50" relative="1" as="geometry">
            <mxPoint x="257" y="190" as="sourcePoint" />
            <mxPoint x="257" y="230" as="targetPoint" />
          </mxGeometry>
        </mxCell>
        <mxCell id="KQ7cRfpCfa-hkvte2fSc-38" value="" style="endArrow=none;html=1;rounded=0;" parent="1" edge="1">
          <mxGeometry width="50" height="50" relative="1" as="geometry">
            <mxPoint x="251" y="195" as="sourcePoint" />
            <mxPoint x="251" y="225" as="targetPoint" />
          </mxGeometry>
        </mxCell>
        <mxCell id="KQ7cRfpCfa-hkvte2fSc-39" value="" style="endArrow=none;html=1;rounded=0;" parent="1" edge="1">
          <mxGeometry width="50" height="50" relative="1" as="geometry">
            <mxPoint x="246" y="195" as="sourcePoint" />
            <mxPoint x="246" y="225" as="targetPoint" />
          </mxGeometry>
        </mxCell>
        <mxCell id="KQ7cRfpCfa-hkvte2fSc-40" value="" style="endArrow=none;html=1;rounded=0;" parent="1" edge="1">
          <mxGeometry width="50" height="50" relative="1" as="geometry">
            <mxPoint x="241" y="195" as="sourcePoint" />
            <mxPoint x="241" y="225" as="targetPoint" />
          </mxGeometry>
        </mxCell>
        <mxCell id="KQ7cRfpCfa-hkvte2fSc-41" value="" style="endArrow=none;html=1;rounded=0;" parent="1" edge="1">
          <mxGeometry width="50" height="50" relative="1" as="geometry">
            <mxPoint x="236" y="195" as="sourcePoint" />
            <mxPoint x="236" y="225" as="targetPoint" />
          </mxGeometry>
        </mxCell>
        <mxCell id="KQ7cRfpCfa-hkvte2fSc-42" value="" style="endArrow=none;html=1;rounded=0;" parent="1" edge="1">
          <mxGeometry width="50" height="50" relative="1" as="geometry">
            <mxPoint x="231" y="195" as="sourcePoint" />
            <mxPoint x="231" y="225" as="targetPoint" />
          </mxGeometry>
        </mxCell>
        <mxCell id="KQ7cRfpCfa-hkvte2fSc-43" value="" style="endArrow=none;html=1;rounded=0;" parent="1" edge="1">
          <mxGeometry width="50" height="50" relative="1" as="geometry">
            <mxPoint x="226" y="195" as="sourcePoint" />
            <mxPoint x="226" y="225" as="targetPoint" />
          </mxGeometry>
        </mxCell>
        <mxCell id="KQ7cRfpCfa-hkvte2fSc-44" value="K&lt;sub&gt;21&lt;/sub&gt;" style="ellipse;whiteSpace=wrap;html=1;aspect=fixed;fillColor=none;" parent="1" vertex="1">
          <mxGeometry x="297" y="190" width="40" height="40" as="geometry" />
        </mxCell>
        <mxCell id="KQ7cRfpCfa-hkvte2fSc-45" value="t&lt;sub&gt;обр&lt;/sub&gt; = 4" style="text;html=1;align=center;verticalAlign=middle;whiteSpace=wrap;rounded=0;" parent="1" vertex="1">
          <mxGeometry x="289.5" y="160" width="55" height="20" as="geometry" />
        </mxCell>
        <mxCell id="KQ7cRfpCfa-hkvte2fSc-46" value="" style="endArrow=none;html=1;rounded=0;" parent="1" edge="1">
          <mxGeometry width="50" height="50" relative="1" as="geometry">
            <mxPoint x="257" y="209.76" as="sourcePoint" />
            <mxPoint x="297" y="209.76" as="targetPoint" />
          </mxGeometry>
        </mxCell>
        <mxCell id="KQ7cRfpCfa-hkvte2fSc-47" value="L&lt;sub&gt;21&lt;/sub&gt; = &lt;font style=&quot;font-size: 16px;&quot;&gt;∞&lt;/font&gt;" style="text;html=1;align=center;verticalAlign=middle;whiteSpace=wrap;rounded=0;" parent="1" vertex="1">
          <mxGeometry x="212" y="160" width="50" height="20" as="geometry" />
        </mxCell>
        <mxCell id="KQ7cRfpCfa-hkvte2fSc-48" value="" style="endArrow=none;html=1;rounded=0;" parent="1" edge="1">
          <mxGeometry width="50" height="50" relative="1" as="geometry">
            <mxPoint x="381" y="70" as="sourcePoint" />
            <mxPoint x="421" y="70" as="targetPoint" />
          </mxGeometry>
        </mxCell>
        <mxCell id="KQ7cRfpCfa-hkvte2fSc-49" value="" style="endArrow=none;html=1;rounded=0;" parent="1" edge="1">
          <mxGeometry width="50" height="50" relative="1" as="geometry">
            <mxPoint x="381" y="110" as="sourcePoint" />
            <mxPoint x="421" y="110" as="targetPoint" />
          </mxGeometry>
        </mxCell>
        <mxCell id="KQ7cRfpCfa-hkvte2fSc-50" value="" style="endArrow=none;html=1;rounded=0;" parent="1" edge="1">
          <mxGeometry width="50" height="50" relative="1" as="geometry">
            <mxPoint x="421" y="70" as="sourcePoint" />
            <mxPoint x="421" y="110" as="targetPoint" />
          </mxGeometry>
        </mxCell>
        <mxCell id="KQ7cRfpCfa-hkvte2fSc-51" value="" style="endArrow=none;html=1;rounded=0;" parent="1" edge="1">
          <mxGeometry width="50" height="50" relative="1" as="geometry">
            <mxPoint x="415" y="75" as="sourcePoint" />
            <mxPoint x="415" y="105" as="targetPoint" />
          </mxGeometry>
        </mxCell>
        <mxCell id="KQ7cRfpCfa-hkvte2fSc-52" value="" style="endArrow=none;html=1;rounded=0;" parent="1" edge="1">
          <mxGeometry width="50" height="50" relative="1" as="geometry">
            <mxPoint x="410" y="75" as="sourcePoint" />
            <mxPoint x="410" y="105" as="targetPoint" />
          </mxGeometry>
        </mxCell>
        <mxCell id="KQ7cRfpCfa-hkvte2fSc-53" value="" style="endArrow=none;html=1;rounded=0;" parent="1" edge="1">
          <mxGeometry width="50" height="50" relative="1" as="geometry">
            <mxPoint x="405" y="75" as="sourcePoint" />
            <mxPoint x="405" y="105" as="targetPoint" />
          </mxGeometry>
        </mxCell>
        <mxCell id="KQ7cRfpCfa-hkvte2fSc-54" value="" style="endArrow=none;html=1;rounded=0;" parent="1" edge="1">
          <mxGeometry width="50" height="50" relative="1" as="geometry">
            <mxPoint x="400" y="75" as="sourcePoint" />
            <mxPoint x="400" y="105" as="targetPoint" />
          </mxGeometry>
        </mxCell>
        <mxCell id="KQ7cRfpCfa-hkvte2fSc-55" value="" style="endArrow=none;html=1;rounded=0;" parent="1" edge="1">
          <mxGeometry width="50" height="50" relative="1" as="geometry">
            <mxPoint x="395" y="75" as="sourcePoint" />
            <mxPoint x="395" y="105" as="targetPoint" />
          </mxGeometry>
        </mxCell>
        <mxCell id="KQ7cRfpCfa-hkvte2fSc-56" value="" style="endArrow=none;html=1;rounded=0;" parent="1" edge="1">
          <mxGeometry width="50" height="50" relative="1" as="geometry">
            <mxPoint x="390" y="75" as="sourcePoint" />
            <mxPoint x="390" y="105" as="targetPoint" />
          </mxGeometry>
        </mxCell>
        <mxCell id="KQ7cRfpCfa-hkvte2fSc-57" value="K&lt;sub&gt;12&lt;/sub&gt;" style="ellipse;whiteSpace=wrap;html=1;aspect=fixed;fillColor=none;" parent="1" vertex="1">
          <mxGeometry x="461" y="70" width="40" height="40" as="geometry" />
        </mxCell>
        <mxCell id="KQ7cRfpCfa-hkvte2fSc-58" value="t&lt;sub&gt;обр&lt;/sub&gt; = 5" style="text;html=1;align=center;verticalAlign=middle;whiteSpace=wrap;rounded=0;" parent="1" vertex="1">
          <mxGeometry x="453.5" y="40" width="55" height="20" as="geometry" />
        </mxCell>
        <mxCell id="KQ7cRfpCfa-hkvte2fSc-59" value="" style="endArrow=none;html=1;rounded=0;" parent="1" edge="1">
          <mxGeometry width="50" height="50" relative="1" as="geometry">
            <mxPoint x="421" y="89.75999999999999" as="sourcePoint" />
            <mxPoint x="461" y="89.75999999999999" as="targetPoint" />
          </mxGeometry>
        </mxCell>
        <mxCell id="KQ7cRfpCfa-hkvte2fSc-60" value="L&lt;sub&gt;12&lt;/sub&gt; = &lt;font style=&quot;font-size: 16px;&quot;&gt;∞&lt;/font&gt;" style="text;html=1;align=center;verticalAlign=middle;whiteSpace=wrap;rounded=0;" parent="1" vertex="1">
          <mxGeometry x="376" y="40" width="50" height="20" as="geometry" />
        </mxCell>
        <mxCell id="KQ7cRfpCfa-hkvte2fSc-61" value="" style="endArrow=classic;html=1;rounded=0;" parent="1" edge="1">
          <mxGeometry width="50" height="50" relative="1" as="geometry">
            <mxPoint x="337" y="90" as="sourcePoint" />
            <mxPoint x="380" y="90" as="targetPoint" />
          </mxGeometry>
        </mxCell>
        <mxCell id="KQ7cRfpCfa-hkvte2fSc-62" value="" style="endArrow=none;html=1;rounded=0;" parent="1" edge="1">
          <mxGeometry width="50" height="50" relative="1" as="geometry">
            <mxPoint x="381" y="189.51999999999998" as="sourcePoint" />
            <mxPoint x="421" y="189.51999999999998" as="targetPoint" />
          </mxGeometry>
        </mxCell>
        <mxCell id="KQ7cRfpCfa-hkvte2fSc-63" value="" style="endArrow=none;html=1;rounded=0;" parent="1" edge="1">
          <mxGeometry width="50" height="50" relative="1" as="geometry">
            <mxPoint x="381" y="229.51999999999998" as="sourcePoint" />
            <mxPoint x="421" y="229.51999999999998" as="targetPoint" />
          </mxGeometry>
        </mxCell>
        <mxCell id="KQ7cRfpCfa-hkvte2fSc-64" value="" style="endArrow=none;html=1;rounded=0;" parent="1" edge="1">
          <mxGeometry width="50" height="50" relative="1" as="geometry">
            <mxPoint x="421" y="189.51999999999998" as="sourcePoint" />
            <mxPoint x="421" y="229.51999999999998" as="targetPoint" />
          </mxGeometry>
        </mxCell>
        <mxCell id="KQ7cRfpCfa-hkvte2fSc-65" value="" style="endArrow=none;html=1;rounded=0;" parent="1" edge="1">
          <mxGeometry width="50" height="50" relative="1" as="geometry">
            <mxPoint x="415" y="194.51999999999998" as="sourcePoint" />
            <mxPoint x="415" y="224.51999999999998" as="targetPoint" />
          </mxGeometry>
        </mxCell>
        <mxCell id="KQ7cRfpCfa-hkvte2fSc-66" value="" style="endArrow=none;html=1;rounded=0;" parent="1" edge="1">
          <mxGeometry width="50" height="50" relative="1" as="geometry">
            <mxPoint x="410" y="194.51999999999998" as="sourcePoint" />
            <mxPoint x="410" y="224.51999999999998" as="targetPoint" />
          </mxGeometry>
        </mxCell>
        <mxCell id="KQ7cRfpCfa-hkvte2fSc-67" value="" style="endArrow=none;html=1;rounded=0;" parent="1" edge="1">
          <mxGeometry width="50" height="50" relative="1" as="geometry">
            <mxPoint x="405" y="194.51999999999998" as="sourcePoint" />
            <mxPoint x="405" y="224.51999999999998" as="targetPoint" />
          </mxGeometry>
        </mxCell>
        <mxCell id="KQ7cRfpCfa-hkvte2fSc-68" value="" style="endArrow=none;html=1;rounded=0;" parent="1" edge="1">
          <mxGeometry width="50" height="50" relative="1" as="geometry">
            <mxPoint x="400" y="194.51999999999998" as="sourcePoint" />
            <mxPoint x="400" y="224.51999999999998" as="targetPoint" />
          </mxGeometry>
        </mxCell>
        <mxCell id="KQ7cRfpCfa-hkvte2fSc-69" value="" style="endArrow=none;html=1;rounded=0;" parent="1" edge="1">
          <mxGeometry width="50" height="50" relative="1" as="geometry">
            <mxPoint x="395" y="194.51999999999998" as="sourcePoint" />
            <mxPoint x="395" y="224.51999999999998" as="targetPoint" />
          </mxGeometry>
        </mxCell>
        <mxCell id="KQ7cRfpCfa-hkvte2fSc-70" value="" style="endArrow=none;html=1;rounded=0;" parent="1" edge="1">
          <mxGeometry width="50" height="50" relative="1" as="geometry">
            <mxPoint x="390" y="194.51999999999998" as="sourcePoint" />
            <mxPoint x="390" y="224.51999999999998" as="targetPoint" />
          </mxGeometry>
        </mxCell>
        <mxCell id="KQ7cRfpCfa-hkvte2fSc-71" value="K&lt;sub&gt;22&lt;/sub&gt;" style="ellipse;whiteSpace=wrap;html=1;aspect=fixed;fillColor=none;" parent="1" vertex="1">
          <mxGeometry x="461" y="189.51999999999998" width="40" height="40" as="geometry" />
        </mxCell>
        <mxCell id="KQ7cRfpCfa-hkvte2fSc-72" value="t&lt;sub&gt;обр&lt;/sub&gt; = 4" style="text;html=1;align=center;verticalAlign=middle;whiteSpace=wrap;rounded=0;" parent="1" vertex="1">
          <mxGeometry x="453.5" y="159.51999999999998" width="55" height="20" as="geometry" />
        </mxCell>
        <mxCell id="KQ7cRfpCfa-hkvte2fSc-73" value="" style="endArrow=none;html=1;rounded=0;" parent="1" edge="1">
          <mxGeometry width="50" height="50" relative="1" as="geometry">
            <mxPoint x="421" y="209.27999999999997" as="sourcePoint" />
            <mxPoint x="461" y="209.27999999999997" as="targetPoint" />
          </mxGeometry>
        </mxCell>
        <mxCell id="KQ7cRfpCfa-hkvte2fSc-74" value="L&lt;sub&gt;22&lt;/sub&gt; = &lt;font style=&quot;font-size: 16px;&quot;&gt;∞&lt;/font&gt;" style="text;html=1;align=center;verticalAlign=middle;whiteSpace=wrap;rounded=0;" parent="1" vertex="1">
          <mxGeometry x="376" y="159.51999999999998" width="50" height="20" as="geometry" />
        </mxCell>
        <mxCell id="KQ7cRfpCfa-hkvte2fSc-75" value="" style="endArrow=classic;html=1;rounded=0;" parent="1" edge="1">
          <mxGeometry width="50" height="50" relative="1" as="geometry">
            <mxPoint x="337" y="209.51999999999998" as="sourcePoint" />
            <mxPoint x="380" y="209.51999999999998" as="targetPoint" />
          </mxGeometry>
        </mxCell>
        <mxCell id="KQ7cRfpCfa-hkvte2fSc-76" value="" style="endArrow=none;html=1;rounded=0;" parent="1" edge="1">
          <mxGeometry width="50" height="50" relative="1" as="geometry">
            <mxPoint x="501" y="89.75999999999999" as="sourcePoint" />
            <mxPoint x="540" y="90" as="targetPoint" />
          </mxGeometry>
        </mxCell>
        <mxCell id="KQ7cRfpCfa-hkvte2fSc-77" value="" style="endArrow=none;html=1;rounded=0;" parent="1" edge="1">
          <mxGeometry width="50" height="50" relative="1" as="geometry">
            <mxPoint x="501" y="209.76" as="sourcePoint" />
            <mxPoint x="540" y="210" as="targetPoint" />
          </mxGeometry>
        </mxCell>
        <mxCell id="KQ7cRfpCfa-hkvte2fSc-79" value="" style="endArrow=classic;html=1;rounded=0;" parent="1" edge="1">
          <mxGeometry width="50" height="50" relative="1" as="geometry">
            <mxPoint x="540" y="133" as="sourcePoint" />
            <mxPoint x="620" y="133" as="targetPoint" />
          </mxGeometry>
        </mxCell>
        <mxCell id="KQ7cRfpCfa-hkvte2fSc-80" value="" style="endArrow=none;html=1;rounded=0;" parent="1" edge="1">
          <mxGeometry width="50" height="50" relative="1" as="geometry">
            <mxPoint x="620" y="130" as="sourcePoint" />
            <mxPoint x="660" y="130" as="targetPoint" />
          </mxGeometry>
        </mxCell>
        <mxCell id="KQ7cRfpCfa-hkvte2fSc-81" value="" style="endArrow=none;html=1;rounded=0;" parent="1" edge="1">
          <mxGeometry width="50" height="50" relative="1" as="geometry">
            <mxPoint x="620" y="170" as="sourcePoint" />
            <mxPoint x="660" y="170" as="targetPoint" />
          </mxGeometry>
        </mxCell>
        <mxCell id="KQ7cRfpCfa-hkvte2fSc-82" value="" style="endArrow=none;html=1;rounded=0;" parent="1" edge="1">
          <mxGeometry width="50" height="50" relative="1" as="geometry">
            <mxPoint x="660" y="130" as="sourcePoint" />
            <mxPoint x="660" y="170" as="targetPoint" />
          </mxGeometry>
        </mxCell>
        <mxCell id="KQ7cRfpCfa-hkvte2fSc-83" value="" style="endArrow=none;html=1;rounded=0;" parent="1" edge="1">
          <mxGeometry width="50" height="50" relative="1" as="geometry">
            <mxPoint x="654" y="135" as="sourcePoint" />
            <mxPoint x="654" y="165" as="targetPoint" />
          </mxGeometry>
        </mxCell>
        <mxCell id="KQ7cRfpCfa-hkvte2fSc-84" value="" style="endArrow=none;html=1;rounded=0;" parent="1" edge="1">
          <mxGeometry width="50" height="50" relative="1" as="geometry">
            <mxPoint x="649" y="135" as="sourcePoint" />
            <mxPoint x="649" y="165" as="targetPoint" />
          </mxGeometry>
        </mxCell>
        <mxCell id="KQ7cRfpCfa-hkvte2fSc-85" value="" style="endArrow=none;html=1;rounded=0;" parent="1" edge="1">
          <mxGeometry width="50" height="50" relative="1" as="geometry">
            <mxPoint x="644" y="135" as="sourcePoint" />
            <mxPoint x="644" y="165" as="targetPoint" />
          </mxGeometry>
        </mxCell>
        <mxCell id="KQ7cRfpCfa-hkvte2fSc-86" value="" style="endArrow=none;html=1;rounded=0;" parent="1" edge="1">
          <mxGeometry width="50" height="50" relative="1" as="geometry">
            <mxPoint x="639" y="135" as="sourcePoint" />
            <mxPoint x="639" y="165" as="targetPoint" />
          </mxGeometry>
        </mxCell>
        <mxCell id="KQ7cRfpCfa-hkvte2fSc-87" value="" style="endArrow=none;html=1;rounded=0;" parent="1" edge="1">
          <mxGeometry width="50" height="50" relative="1" as="geometry">
            <mxPoint x="634" y="135" as="sourcePoint" />
            <mxPoint x="634" y="165" as="targetPoint" />
          </mxGeometry>
        </mxCell>
        <mxCell id="KQ7cRfpCfa-hkvte2fSc-88" value="" style="endArrow=none;html=1;rounded=0;" parent="1" edge="1">
          <mxGeometry width="50" height="50" relative="1" as="geometry">
            <mxPoint x="629" y="135" as="sourcePoint" />
            <mxPoint x="629" y="165" as="targetPoint" />
          </mxGeometry>
        </mxCell>
        <mxCell id="KQ7cRfpCfa-hkvte2fSc-89" value="Д&lt;sub&gt;3&lt;/sub&gt;" style="ellipse;whiteSpace=wrap;html=1;aspect=fixed;fillColor=none;" parent="1" vertex="1">
          <mxGeometry x="700" y="130" width="40" height="40" as="geometry" />
        </mxCell>
        <mxCell id="KQ7cRfpCfa-hkvte2fSc-90" value="t&lt;sub&gt;обр&lt;/sub&gt; = 0" style="text;html=1;align=center;verticalAlign=middle;whiteSpace=wrap;rounded=0;" parent="1" vertex="1">
          <mxGeometry x="692.5" y="100" width="55" height="20" as="geometry" />
        </mxCell>
        <mxCell id="KQ7cRfpCfa-hkvte2fSc-91" value="" style="endArrow=none;html=1;rounded=0;" parent="1" edge="1">
          <mxGeometry width="50" height="50" relative="1" as="geometry">
            <mxPoint x="660" y="149.76" as="sourcePoint" />
            <mxPoint x="700" y="149.76" as="targetPoint" />
          </mxGeometry>
        </mxCell>
        <mxCell id="KQ7cRfpCfa-hkvte2fSc-92" value="L&lt;sub&gt;3&lt;/sub&gt; = &lt;font style=&quot;font-size: 16px;&quot;&gt;∞&lt;/font&gt;" style="text;html=1;align=center;verticalAlign=middle;whiteSpace=wrap;rounded=0;" parent="1" vertex="1">
          <mxGeometry x="615" y="100" width="50" height="20" as="geometry" />
        </mxCell>
        <mxCell id="KQ7cRfpCfa-hkvte2fSc-93" value="" style="endArrow=open;html=1;rounded=0;dashed=1;endFill=0;entryX=0.019;entryY=0.019;entryDx=0;entryDy=0;entryPerimeter=0;" parent="1" edge="1">
          <mxGeometry width="50" height="50" relative="1" as="geometry">
            <mxPoint x="569" y="60" as="sourcePoint" />
            <mxPoint x="569.3799999999999" y="117.56999999999994" as="targetPoint" />
          </mxGeometry>
        </mxCell>
        <mxCell id="KQ7cRfpCfa-hkvte2fSc-94" value="" style="endArrow=none;html=1;rounded=0;dashed=1;" parent="1" edge="1">
          <mxGeometry width="50" height="50" relative="1" as="geometry">
            <mxPoint x="570" y="60" as="sourcePoint" />
            <mxPoint x="680" y="60" as="targetPoint" />
          </mxGeometry>
        </mxCell>
        <mxCell id="KQ7cRfpCfa-hkvte2fSc-95" value="B&lt;sub&gt;12&lt;/sub&gt; (S, t) = LIFETIME(packet) &amp;gt; 10" style="text;html=1;align=center;verticalAlign=middle;whiteSpace=wrap;rounded=0;" parent="1" vertex="1">
          <mxGeometry x="543" y="30" width="194" height="20" as="geometry" />
        </mxCell>
        <mxCell id="KQ7cRfpCfa-hkvte2fSc-96" value="" style="triangle;whiteSpace=wrap;html=1;fillColor=#000000;" parent="1" vertex="1">
          <mxGeometry x="570" y="117.52" width="20" height="30" as="geometry" />
        </mxCell>
        <mxCell id="KQ7cRfpCfa-hkvte2fSc-100" value="" style="endArrow=classic;html=1;rounded=0;" parent="1" edge="1">
          <mxGeometry width="50" height="50" relative="1" as="geometry">
            <mxPoint x="740" y="149.76" as="sourcePoint" />
            <mxPoint x="800" y="150" as="targetPoint" />
          </mxGeometry>
        </mxCell>
        <mxCell id="KQ7cRfpCfa-hkvte2fSc-102" value="Відмова D&lt;sub&gt;2&lt;/sub&gt;" style="text;html=1;align=center;verticalAlign=middle;whiteSpace=wrap;rounded=0;" parent="1" vertex="1">
          <mxGeometry x="473" y="300" width="70" height="20" as="geometry" />
        </mxCell>
        <mxCell id="KQ7cRfpCfa-hkvte2fSc-104" value="&lt;div&gt;N&lt;sub&gt;1&lt;/sub&gt;&amp;nbsp;&lt;/div&gt;&lt;div&gt;кількість оброблених пакетів&lt;/div&gt;" style="text;html=1;align=center;verticalAlign=middle;whiteSpace=wrap;rounded=0;" parent="1" vertex="1">
          <mxGeometry x="800" y="116.25" width="80" height="67.5" as="geometry" />
        </mxCell>
        <mxCell id="YoZ32391U4qM16FqQ7wd-5" value="" style="endArrow=classic;html=1;rounded=0;" edge="1" parent="1">
          <mxGeometry width="50" height="50" relative="1" as="geometry">
            <mxPoint x="540" y="167" as="sourcePoint" />
            <mxPoint x="620" y="167" as="targetPoint" />
          </mxGeometry>
        </mxCell>
        <mxCell id="YoZ32391U4qM16FqQ7wd-8" value="" style="triangle;whiteSpace=wrap;html=1;fillColor=#000000;" vertex="1" parent="1">
          <mxGeometry x="570" y="151.52" width="20" height="30" as="geometry" />
        </mxCell>
        <mxCell id="YoZ32391U4qM16FqQ7wd-10" value="" style="endArrow=none;html=1;rounded=0;" edge="1" parent="1">
          <mxGeometry width="50" height="50" relative="1" as="geometry">
            <mxPoint x="540" y="133" as="sourcePoint" />
            <mxPoint x="540" y="90" as="targetPoint" />
          </mxGeometry>
        </mxCell>
        <mxCell id="YoZ32391U4qM16FqQ7wd-12" value="" style="endArrow=none;html=1;rounded=0;" edge="1" parent="1">
          <mxGeometry width="50" height="50" relative="1" as="geometry">
            <mxPoint x="540" y="210" as="sourcePoint" />
            <mxPoint x="540" y="167" as="targetPoint" />
          </mxGeometry>
        </mxCell>
        <mxCell id="YoZ32391U4qM16FqQ7wd-14" value="" style="endArrow=none;html=1;rounded=0;dashed=1;endFill=0;entryX=0.019;entryY=0.019;entryDx=0;entryDy=0;entryPerimeter=0;startArrow=open;startFill=0;" edge="1" parent="1">
          <mxGeometry width="50" height="50" relative="1" as="geometry">
            <mxPoint x="570" y="182.52" as="sourcePoint" />
            <mxPoint x="570.3799999999999" y="240.08999999999995" as="targetPoint" />
          </mxGeometry>
        </mxCell>
        <mxCell id="YoZ32391U4qM16FqQ7wd-15" value="" style="endArrow=none;html=1;rounded=0;dashed=1;" edge="1" parent="1">
          <mxGeometry width="50" height="50" relative="1" as="geometry">
            <mxPoint x="570" y="242" as="sourcePoint" />
            <mxPoint x="680" y="242" as="targetPoint" />
          </mxGeometry>
        </mxCell>
        <mxCell id="YoZ32391U4qM16FqQ7wd-16" value="B&lt;sub&gt;22&lt;/sub&gt; (S, t) = LIFETIME(packet) &amp;gt; 10" style="text;html=1;align=center;verticalAlign=middle;whiteSpace=wrap;rounded=0;" vertex="1" parent="1">
          <mxGeometry x="546" y="250" width="194" height="20" as="geometry" />
        </mxCell>
        <mxCell id="YoZ32391U4qM16FqQ7wd-17" value="" style="endArrow=open;html=1;rounded=0;dashed=1;endFill=0;exitX=0;exitY=0.5;exitDx=0;exitDy=0;entryX=0.5;entryY=0;entryDx=0;entryDy=0;" edge="1" parent="1" source="YoZ32391U4qM16FqQ7wd-8" target="KQ7cRfpCfa-hkvte2fSc-102">
          <mxGeometry width="50" height="50" relative="1" as="geometry">
            <mxPoint x="546" y="282" as="sourcePoint" />
            <mxPoint x="520" y="280" as="targetPoint" />
          </mxGeometry>
        </mxCell>
        <mxCell id="YoZ32391U4qM16FqQ7wd-18" value="Відмова D&lt;sub&gt;1&lt;/sub&gt;" style="text;html=1;align=center;verticalAlign=middle;whiteSpace=wrap;rounded=0;" vertex="1" parent="1">
          <mxGeometry x="476" y="-20" width="70" height="20" as="geometry" />
        </mxCell>
        <mxCell id="YoZ32391U4qM16FqQ7wd-19" value="" style="endArrow=none;html=1;rounded=0;dashed=1;endFill=0;startArrow=open;startFill=0;exitX=0.5;exitY=1;exitDx=0;exitDy=0;" edge="1" parent="1" source="YoZ32391U4qM16FqQ7wd-18">
          <mxGeometry width="50" height="50" relative="1" as="geometry">
            <mxPoint x="490" y="-20" as="sourcePoint" />
            <mxPoint x="570" y="133" as="targetPoint" />
          </mxGeometry>
        </mxCell>
      </root>
    </mxGraphModel>
  </diagram>
</mxfile>
